<svg xmlns="http://www.w3.org/2000/svg" style="display: none">
	<symbol id="logo-icon" viewBox="0 0 50 50">
		<path d="M0,0v50h50V0H0z M20.28,24.71l-8.67,8.67c-0.12,0.13-0.26,0.19-0.42,0.19c-0.17,0-0.31-0.06-0.43-0.19l-0.93-0.93 c-0.13-0.12-0.19-0.27-0.19-0.43c0-0.16,0.06-0.3,0.19-0.42l7.31-7.32l-7.31-7.31c-0.13-0.12-0.19-0.26-0.19-0.43 c0-0.16,0.06-0.3,0.19-0.42l0.93-0.93c0.12-0.13,0.26-0.19,0.43-0.19c0.16,0,0.3,0.06,0.42,0.19l8.67,8.67 c0.13,0.12,0.19,0.26,0.19,0.42C20.47,24.44,20.41,24.59,20.28,24.71z M40.36,34.4c0,0.18-0.06,0.32-0.17,0.43 C40.08,34.94,39.94,35,39.76,35H21.9c-0.17,0-0.31-0.06-0.43-0.17c-0.11-0.11-0.16-0.25-0.16-0.43v-1.19c0-0.17,0.05-0.31,0.16-0.42 c0.12-0.12,0.26-0.17,0.43-0.17h17.86c0.18,0,0.32,0.05,0.43,0.17c0.11,0.11,0.17,0.25,0.17,0.42V34.4z" />
	</symbol>

	<symbol id="search-icon" viewBox="0 0 50 50">
		<path d="M39.46,35.98L50,46.52L46.52,50L35.98,39.46c-3.92,3.14-8.8,4.85-13.83,4.85C9.92,44.3,0,34.38,0,22.15S9.92,0,22.15,0
	S44.3,9.92,44.3,22.15C44.31,27.18,42.6,32.06,39.46,35.98z M34.52,34.15c3.12-3.21,4.87-7.52,4.86-12
	c0-9.52-7.71-17.23-17.23-17.23c-9.52,0-17.23,7.71-17.23,17.23c0,9.52,7.71,17.23,17.23,17.23c4.48,0.01,8.79-1.74,12-4.86
	C34.15,34.52,34.52,34.15,34.52,34.15z" />
	</symbol>

	<symbol id="arrow-icon" viewBox="0 0 50 50">
		<path d="M25,37.69L0,16.37l4.76-4.06L25,29.57l20.24-17.25L50,16.37L25,37.69z" />
	</symbol>

	<symbol id="link-icon" viewBox="0 0 50 50">
		<path d="M41.12,32.91l-4-4l4-4c4.42-4.42,4.42-11.6,0-16.02s-11.6-4.42-16.02,0l-4,4l-4-4l4-4c6.69-6.58,17.45-6.49,24.03,0.2
	c6.51,6.61,6.51,17.22,0,23.83C45.12,28.91,41.12,32.91,41.12,32.91z M33.11,40.92l-4,4c-6.58,6.69-17.34,6.78-24.03,0.2
	s-6.78-17.34-0.2-24.03c0.06-0.07,0.13-0.13,0.2-0.2l4-4l4,4l-4,4c-4.42,4.42-4.42,11.6,0,16.02s11.6,4.42,16.02,0l4-4L33.11,40.92z
	 M33.11,12.89l4.01,4.01L17.09,36.91l-4.01-4L33.11,12.89L33.11,12.89z" />
	</symbol>

	<symbol id="swift-icon" viewBox="0 0 50 50">
		<path d="M30.78,2.87c21.24,13.78,14.75,31.11,14.75,31.11s2.29,2.61,3.44,5.85c1.15,3.24,1.13,7.2,0.92,7.31 c-0.21,0.1-2.89-4.49-7.59-4.49s-7.08,4.49-15.41,4.49C8.13,47.13,0,31.71,0,31.71s8.25,5.92,16.9,5.72 c8.64-0.21,11.04-2.71,11.04-2.71s-3.86-3.24-10.52-9.76C10.76,18.43,4.5,9.44,4.5,9.44s10.03,7.97,13.25,10.31 c3.22,2.34,6.43,4.47,6.43,4.47s-3.12-3.37-5.31-6.08c-2.19-2.71-7.81-10.89-7.81-10.89s8.61,7.8,12.53,10.89 c3.92,3.1,11.42,8.32,11.42,8.32S39.53,16.13,30.78,2.87z" />
	</symbol>

	<symbol id="archive-icon" viewBox="0 0 50 50">
		<path d="M5,2.5h40l5,10V45c0,1.38-1.12,2.5-2.5,2.5h-45C1.12,47.5,0,46.38,0,45V12.51L5,2.5z M45,17.5H5v25h40V17.5z M44.41,12.5 l-2.5-5H8.09l-2.5,5H44.41z M27.5,30H35L25,40L15,30h7.5V20h5V30z" />
	</symbol>

	<symbol id="rss-icon" viewBox="0 0 50 50">
		<path d="M0,0c27.61,0,50,22.39,50,50h-8.33C41.67,26.99,23.01,8.33,0,8.33V0z M0,19.44c16.88,0,30.56,13.68,30.56,30.56h-8.33
	c0-12.27-9.95-22.22-22.22-22.22V19.44z M0,38.89c6.14,0,11.11,4.97,11.11,11.11H0V38.89z" />
	</symbol>

	<symbol id="about-icon" viewBox="0 0 50 50">
		<path d="M0.02,43.22c1.92-0.09,3.23-0.46,3.93-1.09s1.06-1.99,1.06-4.11V12.9c0-2.2-0.42-3.6-1.25-4.27
	c-0.55-0.44-1.8-0.74-3.74-0.9V6.3H18.3c3.79,0,6.86,0.39,9.2,1.2c4.55,1.62,6.82,4.51,6.82,8.66c0,3.1-1.2,5.52-3.58,7.28
	c-1.83,1.34-3.74,2.17-5.78,2.54l12.06,16.15c0.32,0.44,0.65,0.74,0.99,0.88s0.79,0.23,1.29,0.25v1.36H27.45L14.21,26.88h-0.02V38
	c0,1.99,0.32,3.35,0.99,4.04c0.67,0.69,1.99,1.09,4,1.16v1.43H0v-1.41H0.02z M22.18,23.51c1.59-0.99,2.4-3.28,2.4-6.86
	c0-2.2-0.3-3.93-0.92-5.22c-1.06-2.17-2.98-3.23-5.78-3.23c-1.52,0-2.52,0.18-2.98,0.58c-0.46,0.37-0.72,0.99-0.72,1.87v14.44
	C17.93,25.03,20.59,24.5,22.18,23.51z M43.25,5.37c-3.72,0-6.75,2.63-6.75,5.89s3.03,5.89,6.75,5.89c0.3,0-0.07,1.52,0.21,1.52
	c0.16,0,2.17-1.89,2.4-1.99c2.43-0.9,4.14-2.98,4.14-5.43C49.98,8.01,46.97,5.37,43.25,5.37L43.25,5.37z M43.69,13.39h-3.63
	c-0.37,0-0.67-0.3-0.67-0.67s0.3-0.67,0.67-0.67h3.63c0.37,0,0.67,0.3,0.67,0.67C44.34,13.09,44.06,13.39,43.69,13.39L43.69,13.39z
	 M46.42,10.48h-6.35c-0.37,0-0.67-0.3-0.67-0.67c0-0.37,0.3-0.67,0.67-0.67h6.35c0.37,0,0.67,0.3,0.67,0.67
	C47.09,10.18,46.79,10.48,46.42,10.48L46.42,10.48z" />
	</symbol>

	<symbol id="weibo-icon" viewBox="0 0 50 50">
		<path d="M37.55,24.25c2.87,0.89,6.07,3.04,6.07,6.83c0,6.28-9.04,14.18-22.64,14.18C10.6,45.25,0,40.22,0,31.95
	c0-4.32,2.74-9.32,7.45-14.04c6.3-6.29,13.64-9.16,16.4-6.4c1.22,1.22,1.34,3.33,0.55,5.84c-0.4,1.27,1.19,0.57,1.19,0.57
	c5.09-2.13,9.54-2.26,11.16,0.06c0.86,1.23,0.78,2.97-0.02,4.98C36.37,23.89,36.85,24.04,37.55,24.25L37.55,24.25z M21,42.29
	c8.27-0.82,14.55-5.89,14.01-11.32c-0.54-5.43-7.69-9.18-15.96-8.36C10.79,23.43,4.51,28.5,5.04,33.93
	C5.58,39.37,12.73,43.1,21,42.29z M11.73,31.2c1.71-3.47,6.16-5.43,10.1-4.41c4.07,1.05,6.15,4.89,4.49,8.64
	c-1.69,3.82-6.55,5.86-10.67,4.53C11.67,38.67,9.99,34.74,11.73,31.2z M15.01,37.08c1.29,0.58,3.01,0.03,3.81-1.25
	c0.79-1.29,0.37-2.77-0.92-3.32c-1.28-0.54-2.93,0.02-3.73,1.26C13.36,35.01,13.74,36.5,15.01,37.08z M20.02,32.97
	c0.5,0.21,1.14-0.03,1.43-0.52c0.28-0.5,0.1-1.06-0.4-1.25c-0.49-0.19-1.1,0.04-1.39,0.53C19.37,32.22,19.53,32.77,20.02,32.97z
	 M42.89,19.98c-0.27,0.87-1.2,1.35-2.07,1.07c-0.87-0.27-1.35-1.2-1.07-2.07c0-0.01,0.01-0.02,0.01-0.03
	c0.35-1.07,0.1-2.25-0.65-3.08c-0.76-0.83-1.9-1.2-3-0.97c-0.89,0.19-1.76-0.38-1.95-1.26c-0.19-0.89,0.38-1.76,1.26-1.95
	c3.48-0.74,6.91,1.48,7.65,4.96C43.3,17.75,43.24,18.9,42.89,19.98z M33.99,5.04c4.63-0.99,9.43,0.57,12.6,4.08
	c3.17,3.52,4.23,8.46,2.77,12.96c-0.32,1-1.39,1.55-2.39,1.23c0,0-0.01,0-0.01,0c-1.01-0.33-1.56-1.41-1.23-2.41
	c1.6-4.95-1.11-10.26-6.06-11.86c-1.57-0.51-3.25-0.59-4.86-0.25c-1.05,0.17-2.03-0.55-2.2-1.6C32.44,6.22,33.04,5.3,33.99,5.04z" />
	</symbol>

	<symbol id="wechat-icon" viewBox="0 0 50 50">
		<path d="M39.94,29.15c1.12-0.01,2.03-0.92,2.04-2.04c0-1.13-0.91-2.04-2.04-2.04c-1.13,0-2.04,0.91-2.04,2.04
	C37.9,28.25,38.81,29.15,39.94,29.15z M29.88,29.15c1.12-0.01,2.03-0.92,2.04-2.04c0-1.13-0.91-2.04-2.04-2.04
	c-1.14,0-2.04,0.91-2.04,2.04C27.84,28.25,28.75,29.15,29.88,29.15z M44.81,40.61c-0.3,0.17-0.46,0.51-0.39,0.84
	c0,0.11,0,0.22,0.06,0.33c0.22,0.95,0.67,2.46,0.67,2.51c0,0.17,0.06,0.28,0.06,0.39c0,0.28-0.22,0.5-0.5,0.5c0,0,0,0,0,0
	c-0.11,0-0.17-0.05-0.28-0.11l-3.29-1.9c-0.24-0.13-0.51-0.21-0.78-0.22c-0.17,0-0.33,0-0.45,0.05c-1.56,0.45-3.18,0.67-4.91,0.67
	c-8.32,0-15.02-5.58-15.02-12.51c0-6.92,6.7-12.51,15.02-12.51C43.3,18.66,50,24.25,50,31.17C50,34.91,47.99,38.32,44.81,40.61
	L44.81,40.61z M35.62,16.4c-0.21-0.01-0.42-0.01-0.64-0.01c-9.49,0-17.29,6.5-17.29,14.78c0,1.26,0.18,2.48,0.52,3.64h-0.2
	c-1.99-0.02-3.96-0.3-5.87-0.84c-0.17-0.06-0.34-0.06-0.5-0.06c-0.34,0.01-0.66,0.1-0.95,0.28l-3.97,2.28
	c-0.11,0.06-0.22,0.11-0.34,0.11c-0.34,0-0.61-0.28-0.61-0.61c0-0.17,0.05-0.28,0.11-0.45c0.05-0.05,0.56-1.9,0.84-3.01
	c0-0.11,0.05-0.28,0.05-0.39c0-0.39-0.19-0.77-0.5-1C2.4,28.39,0,24.32,0,19.81c0-8.3,8.11-15,18.07-15
	C26.62,4.81,33.82,9.74,35.62,16.4L35.62,16.4z M23.91,17.35c1.3,0,2.33-1.08,2.33-2.33c0-1.3-1.03-2.33-2.33-2.33
	s-2.33,1.03-2.33,2.33S22.6,17.35,23.91,17.35z M11.95,17.35c1.3,0,2.33-1.08,2.33-2.33c0-1.3-1.03-2.33-2.33-2.33
	c-1.3,0-2.33,1.03-2.33,2.33S10.65,17.35,11.95,17.35z" />
	</symbol>

	<symbol id="facebook-icon" viewBox="0 0 50 50">
		<path d="M29.38,28.75h6.25l2.5-10h-8.75v-5c0-2.57,0-5,5-5h3.75v-8.4C37.31,0.24,34.23,0,30.98,0C24.2,0,19.38,4.14,19.38,11.75v7
	h-7.5v10h7.5V50h10V28.75z" />
	</symbol>

	<symbol id="twitter-icon" viewBox="0 0 50 50">
		<path d="M50,9.5c-1.87,0.83-3.86,1.37-5.89,1.61c2.14-1.28,3.75-3.3,4.51-5.68c-2.01,1.2-4.22,2.04-6.51,2.49
	c-3.87-4.14-10.36-4.36-14.5-0.49c-2.69,2.51-3.82,6.27-2.98,9.85C16.38,16.87,8.69,12.97,3.48,6.56c-0.91,1.57-1.39,3.35-1.39,5.16
	c0,3.56,1.81,6.7,4.56,8.54c-1.63-0.05-3.22-0.49-4.65-1.28v0.13c0,4.88,3.44,9.09,8.23,10.06c-1.51,0.41-3.1,0.47-4.64,0.18
	c1.34,4.18,5.19,7.04,9.58,7.13c-4.3,3.38-9.76,4.9-15.19,4.25c4.69,3.02,10.15,4.62,15.72,4.61c18.87,0,29.19-15.63,29.19-29.19
	c0-0.44-0.01-0.89-0.03-1.32C46.89,13.36,48.62,11.56,50,9.5L50,9.5z" />
	</symbol>

	<symbol id="github-icon" viewBox="0 0 50 50">
		<path d="M25,0.62c-13.81,0-25,11.19-25,25C-0.01,36.38,6.88,45.94,17.1,49.34c1.25,0.22,1.72-0.53,1.72-1.19
	c0-0.59-0.03-2.56-0.03-4.65c-6.28,1.16-7.9-1.53-8.4-2.94c-0.28-0.72-1.5-2.94-2.56-3.53c-0.88-0.47-2.12-1.62-0.03-1.65
	c1.97-0.03,3.37,1.81,3.84,2.56c2.25,3.78,5.85,2.72,7.28,2.06c0.22-1.62,0.88-2.72,1.6-3.34C14.94,36.02,9.13,33.87,9.13,24.3
	c0-2.72,0.97-4.97,2.56-6.72c-0.25-0.62-1.12-3.19,0.25-6.62c0,0,2.09-0.66,6.88,2.56c2.04-0.56,4.14-0.85,6.25-0.84
	c2.12,0,4.25,0.28,6.25,0.84c4.78-3.25,6.88-2.56,6.88-2.56c1.38,3.44,0.5,6,0.25,6.62C40.03,19.34,41,21.55,41,24.3
	c0,9.59-5.84,11.72-11.4,12.34c0.9,0.78,1.69,2.28,1.69,4.62c0,3.34-0.03,6.03-0.03,6.88c0,0.65,0.47,1.43,1.72,1.19
	C43.15,45.9,50,36.36,50,25.62C50,11.8,38.81,0.62,25,0.62z" />
	</symbol>

	<symbol id="evernote-icon" viewBox="0 0 50 50">
		<path d="M16.6,13.1c-0.54,0.5-1.36,0.54-1.85,0.54H9.49c-1.52,0-2.43,0-3.04,0.08c-0.33,0.04-0.74,0.21-0.95,0.29
	c-0.08,0.04-0.08,0-0.04-0.04L17.46,1.66c0.04-0.04,0.08-0.04,0.04,0.04c-0.13,0.31-0.23,0.62-0.29,0.95
	c-0.08,0.62-0.08,1.53-0.08,3.07v5.51C17.13,11.73,17.09,12.56,16.6,13.1L16.6,13.1z M28.27,48.46c-1.4-0.91-2.14-2.11-2.43-2.86
	c-0.3-0.72-0.45-1.5-0.45-2.28c0-3.45,2.8-6.25,6.25-6.26c1.03,0,1.85,0.83,1.85,1.86c0,0.67-0.36,1.29-0.95,1.62
	c-0.22,0.12-0.45,0.2-0.7,0.25c-0.2,0.04-0.99,0.12-1.35,0.46c-0.45,0.35-0.72,0.88-0.74,1.45c0,0.61,0.23,1.19,0.66,1.62
	c0.74,0.75,1.73,1.16,2.8,1.16c2.8-0.01,5.07-2.29,5.06-5.1c0,0,0,0,0,0c0-2.53-1.69-4.77-3.91-5.76c-0.33-0.17-0.86-0.29-1.36-0.42
	c-0.41-0.08-0.82-0.15-1.23-0.21c-1.73-0.21-6.04-1.58-6.33-5.43c0,0-1.27,5.8-3.82,7.38c-0.24,0.12-0.57,0.25-0.94,0.33
	c-0.37,0.08-0.78,0.12-0.91,0.12c-4.15,0.25-8.55-1.08-11.59-4.23c0,0-2.06-1.7-3.12-6.47c-0.25-1.16-0.74-3.24-1.03-5.19
	c-0.12-0.7-0.17-1.24-0.21-1.74c0-2.03,1.23-3.4,2.79-3.6h8.39c1.44,0,2.26-0.37,2.79-0.87c0.7-0.66,0.87-1.62,0.87-2.74V2.82
	C18.85,1.29,20.22,0,22.23,0h0.99c0.41,0,0.91,0.04,1.36,0.08c0.33,0.04,0.62,0.12,1.11,0.25c2.51,0.62,3.04,3.19,3.04,3.19
	l7.12,1.25c2.26,0.41,7.85,0.79,8.92,6.47c2.51,13.51,0.99,26.61,0.87,26.61C43.85,50.62,33.33,50,33.33,50
	C31.52,50.03,29.75,49.49,28.27,48.46z M34.81,22.76c-0.08,0.21-0.16,0.46-0.12,0.58c0.04,0.12,0.13,0.16,0.21,0.21
	c0.49,0.25,1.31,0.37,2.51,0.5c1.19,0.12,2.01,0.21,2.55,0.12c0.08,0,0.17-0.04,0.25-0.17c0.08-0.12,0.04-0.37,0.04-0.58
	c-0.12-1.12-1.15-1.95-2.51-2.11C36.37,21.18,35.22,21.73,34.81,22.76z" />
	</symbol>

	<symbol id="category-icon" viewBox="0 0 50 50">
		<path d="M8.05,0h33.91c1.34,0,2.42,1.08,2.42,2.42v46.37c0,0.67-0.54,1.21-1.21,1.21c-0.23,0-0.45-0.06-0.65-0.19L25,38.83
	L7.48,49.81C6.91,50.17,6.16,50,5.81,49.43c-0.12-0.19-0.19-0.42-0.19-0.64V2.42C5.62,1.08,6.71,0,8.05,0z M39.53,4.84H10.47v37.38
	L25,33.11l14.53,9.11V4.84z" />
	</symbol>

	<symbol id="cancel-icon" viewBox="0 0 50 50">
		<path d="M29.42,25L49.08,5.34c1.22-1.22,1.22-3.2,0-4.42c-1.22-1.22-3.2-1.22-4.42,0L25,20.58L5.34,0.92
		c-1.22-1.22-3.2-1.22-4.42,0c-1.22,1.22-1.22,3.2,0,4.42L20.58,25L0.92,44.66c-1.22,1.22-1.22,3.2,0,4.42
		C1.53,49.69,2.33,50,3.13,50s1.6-0.31,2.21-0.92L25,29.42l19.66,19.66c0.61,0.61,1.41,0.92,2.21,0.92s1.6-0.31,2.21-0.92
		c1.22-1.22,1.22-3.2,0-4.42L29.42,25z" />
	</symbol>

	<symbol id="algolia-icon" viewBox="0 0 50 50">
		<path d="M10.73,18.82H1.63c-0.9,0-1.63,0.73-1.63,1.62v9.11c0,0.9,0.73,1.63,1.63,1.63h9.11c0.9,0,1.63-0.73,1.63-1.63
	v-9.11C12.36,19.55,11.63,18.82,10.73,18.82z M5.14,21.16c0-0.3,0.24-0.54,0.54-0.54h1.25c0.3,0,0.54,0.24,0.54,0.54v0.42
	c0,0.01,0,0.01,0,0.02c-0.01,0.04-0.05,0.06-0.09,0.05c-0.34-0.09-0.7-0.14-1.05-0.14c-0.37,0-0.73,0.05-1.09,0.15
	c-0.01,0-0.01,0-0.02,0c-0.04,0-0.07-0.03-0.07-0.07C5.14,21.59,5.14,21.16,5.14,21.16z M2.81,22.93c-0.21-0.21-0.21-0.55,0-0.76
	l0.26-0.26c0.21-0.21,0.55-0.21,0.76,0l0.21,0.21l0,0c0,0,0.01,0.01,0.01,0.01c0.02,0.03,0.01,0.08-0.02,0.1
	c-0.17,0.12-0.33,0.26-0.48,0.41c-0.15,0.15-0.29,0.31-0.41,0.48c0,0,0,0-0.01,0.01c-0.03,0.03-0.08,0.03-0.11,0L2.81,22.93
	C2.81,22.93,2.81,22.93,2.81,22.93z M6.33,28.93c-1.93,0-3.49-1.56-3.5-3.49c0-1.93,1.56-3.49,3.49-3.5c1.93,0,3.49,1.56,3.5,3.49
	C9.82,27.36,8.26,28.93,6.33,28.93z M6.33,22.97c-1.36,0-2.46,1.1-2.47,2.45s1.1,2.46,2.45,2.47l0,0.01c1.36,0,2.46-1.1,2.46-2.46
	C8.79,24.08,7.69,22.97,6.33,22.97z M8.09,24.43c0.02,0.04,0.01,0.08-0.03,0.1l-1.63,0.84c-0.01,0-0.02,0.01-0.03,0.01
	c-0.04,0-0.07-0.03-0.07-0.07v-1.83l0-0.01c0-0.04,0.04-0.07,0.08-0.07C7.1,23.43,7.74,23.82,8.09,24.43
	C8.09,24.43,8.09,24.43,8.09,24.43z M24.64,28.62c-2.41,0.01-2.41-1.94-2.41-2.25v-7.31l1.46-0.24v7.27c0,0.18,0,1.29,0.94,1.3
	L24.64,28.62z M18.69,27.43c0.34,0.01,0.68-0.02,1.02-0.07v-1.49c-0.12-0.03-0.23-0.05-0.35-0.07c-0.17-0.03-0.34-0.04-0.51-0.04
	c-0.16,0-0.33,0.01-0.49,0.04c-0.16,0.02-0.31,0.07-0.45,0.13c-0.13,0.06-0.24,0.15-0.32,0.27c-0.08,0.1-0.13,0.23-0.12,0.36
	c0,0.35,0.12,0.54,0.34,0.67C18.08,27.38,18.38,27.45,18.69,27.43L18.69,27.43L18.69,27.43z M18.56,22.1
	c0.42-0.01,0.83,0.05,1.22,0.18c0.3,0.1,0.57,0.27,0.79,0.5c0.2,0.23,0.34,0.51,0.41,0.81c0.09,0.33,0.13,0.67,0.13,1.02v3.77
	c-0.22,0.05-0.57,0.1-1.03,0.17c-0.51,0.07-1.03,0.11-1.55,0.1c-0.35,0-0.69-0.04-1.03-0.11c-0.29-0.06-0.56-0.18-0.81-0.35
	c-0.22-0.16-0.4-0.37-0.52-0.62c-0.13-0.31-0.2-0.65-0.19-0.99c-0.01-0.29,0.06-0.58,0.21-0.84c0.14-0.25,0.34-0.45,0.57-0.61
	c0.26-0.16,0.54-0.28,0.84-0.34c0.33-0.07,0.66-0.1,1-0.1c0.17,0,0.34,0.01,0.52,0.03c0.19,0.02,0.38,0.06,0.57,0.1V24.6
	c0-0.16-0.02-0.32-0.06-0.48c-0.04-0.15-0.11-0.29-0.21-0.4c-0.11-0.12-0.25-0.21-0.4-0.26c-0.2-0.08-0.41-0.11-0.63-0.11
	c-0.31,0-0.62,0.03-0.93,0.09c-0.23,0.04-0.47,0.09-0.69,0.16l-0.18-1.2c0.27-0.08,0.54-0.15,0.81-0.19
	C17.8,22.13,18.18,22.1,18.56,22.1L18.56,22.1z M47.56,27.39c0.34,0.01,0.68-0.02,1.02-0.07v-1.49c-0.12-0.03-0.23-0.06-0.35-0.07
	c-0.17-0.02-0.34-0.04-0.52-0.04c-0.16,0-0.33,0.01-0.49,0.04c-0.16,0.02-0.31,0.06-0.45,0.13c-0.13,0.06-0.23,0.15-0.31,0.27
	c-0.08,0.1-0.13,0.23-0.12,0.36c0,0.35,0.12,0.54,0.34,0.67C46.9,27.32,47.19,27.39,47.56,27.39
	C47.56,27.39,47.56,27.39,47.56,27.39z M47.44,22.07c0.42-0.01,0.83,0.05,1.22,0.18c0.3,0.1,0.57,0.27,0.79,0.5
	c0.2,0.23,0.34,0.51,0.42,0.81c0.09,0.33,0.13,0.67,0.13,1.02v3.77c-0.23,0.05-0.57,0.1-1.03,0.17c-0.51,0.07-1.03,0.11-1.55,0.1
	c-0.35,0-0.7-0.03-1.04-0.11c-0.29-0.06-0.56-0.18-0.81-0.35c-0.22-0.16-0.4-0.37-0.52-0.62c-0.13-0.31-0.2-0.65-0.19-0.99
	c-0.01-0.29,0.06-0.58,0.21-0.84c0.14-0.25,0.34-0.45,0.57-0.61c0.26-0.16,0.54-0.28,0.84-0.34c0.33-0.07,0.66-0.1,1-0.1
	c0.17,0,0.34,0.01,0.52,0.03c0.19,0.02,0.38,0.06,0.57,0.1v-0.25c0-0.16-0.02-0.32-0.06-0.48c-0.04-0.15-0.11-0.28-0.21-0.4
	c-0.11-0.12-0.24-0.22-0.4-0.27c-0.2-0.08-0.42-0.11-0.63-0.11c-0.31,0-0.62,0.03-0.93,0.09c-0.23,0.04-0.47,0.09-0.69,0.17
	l-0.18-1.2c0.27-0.08,0.54-0.15,0.81-0.19C46.68,22.1,47.06,22.06,47.44,22.07L47.44,22.07z M43.03,21.37c0.49,0,0.89-0.4,0.88-0.9
	c0-0.49-0.4-0.89-0.9-0.88c-0.49,0-0.88,0.4-0.88,0.89C42.14,20.97,42.54,21.37,43.03,21.37z M43.77,28.62h-1.48v-6.33l1.48-0.23
	V28.62z M41.18,28.62c-2.41,0.01-2.41-1.94-2.41-2.25v-7.31l1.46-0.24v7.27c0,0.18,0,1.29,0.94,1.3L41.18,28.62z M36.41,25.38
	c0-0.63-0.14-1.16-0.41-1.53c-0.49-0.63-1.39-0.74-2.02-0.25c-0.09,0.07-0.18,0.16-0.25,0.25c-0.27,0.37-0.4,0.9-0.4,1.53
	s0.14,1.07,0.41,1.44c0.48,0.63,1.38,0.74,2,0.26c0.1-0.08,0.19-0.16,0.26-0.26C36.27,26.45,36.41,26.03,36.41,25.38z M37.91,25.38
	c0.01,0.44-0.07,0.87-0.22,1.28c-0.13,0.39-0.34,0.74-0.62,1.05c-0.27,0.29-0.6,0.52-0.96,0.67c-0.4,0.15-0.82,0.23-1.24,0.25
	c-0.42-0.01-0.84-0.1-1.24-0.25c-0.36-0.15-0.69-0.38-0.96-0.67c-0.28-0.3-0.49-0.66-0.62-1.05c-0.15-0.41-0.23-0.84-0.22-1.28
	c-0.01-0.47,0.07-0.93,0.22-1.38c0.14-0.39,0.35-0.74,0.63-1.04c0.27-0.29,0.6-0.52,0.96-0.67c0.39-0.16,0.8-0.24,1.22-0.23
	c0.42,0,0.84,0.08,1.23,0.23c0.37,0.15,0.69,0.38,0.96,0.67c0.27,0.3,0.48,0.66,0.62,1.04C37.84,24.45,37.92,24.91,37.91,25.38
	L37.91,25.38z M26.86,25.38c0,0.62,0.13,1.3,0.41,1.58c0.27,0.29,0.65,0.44,1.05,0.43c0.22,0,0.45-0.03,0.66-0.1
	c0.18-0.05,0.35-0.13,0.5-0.24v-3.64c-0.32-0.07-0.64-0.11-0.97-0.12c-0.47-0.02-0.93,0.18-1.22,0.55
	C27,24.2,26.86,24.81,26.86,25.38L26.86,25.38z M30.94,28.28c0,1-0.26,1.73-0.77,2.2c-0.51,0.46-1.3,0.7-2.36,0.69
	c-0.62-0.02-1.23-0.09-1.83-0.22l0.24-1.16c0.53,0.1,1.08,0.14,1.62,0.14c0.59,0,1.01-0.12,1.26-0.36c0.25-0.24,0.37-0.6,0.37-1.07
	v-0.24c-0.19,0.09-0.38,0.16-0.57,0.22c-0.27,0.07-0.54,0.11-0.82,0.1c-0.38,0.01-0.75-0.06-1.11-0.19
	c-0.33-0.12-0.62-0.31-0.86-0.56c-0.25-0.27-0.44-0.58-0.56-0.93c-0.13-0.37-0.2-1.04-0.2-1.52c-0.01-0.48,0.06-0.96,0.21-1.41
	c0.13-0.37,0.34-0.71,0.62-0.99c0.28-0.28,0.62-0.5,0.99-0.64c0.42-0.17,0.88-0.25,1.33-0.25c0.45,0.01,0.9,0.05,1.35,0.13
	c0.37,0.06,0.73,0.13,1.09,0.23L30.94,28.28z" />
	</symbol>

	<symbol id="hexo-icon" viewBox="0 0 50 50">
		<path d="M25,0L3.26,12.61v25L25,50l21.74-12.61v-25L25,0z M35,35.65l-1.96,1.09l-1.96-1.09v-8.7H18.91v8.7l-1.96,1.09
	L15,35.65V14.35l1.96-1.09l1.96,1.09v8.7h12.17v-8.7l1.96-1.09L35,14.35L35,35.65L35,35.65z" />
	</symbol>

	<symbol id="javascript-icon" viewBox="0 0 50 50">
		<path d="M0,0h50v50H0V0z" />
		<path class="st0" d="M13.15,41.78l3.83-2.32c0.74,1.31,1.41,2.42,3.02,2.42c1.54,0,2.52-0.6,2.52-2.95V22.95h4.7V39c0,4.87-2.85,7.08-7.01,7.08
	C16.44,46.08,14.25,44.13,13.15,41.78" />
		<path class="st0" d="M29.76,41.28l3.83-2.22c1.01,1.64,2.32,2.85,4.63,2.85c1.95,0,3.19-0.97,3.19-2.32c0-1.61-1.28-2.18-3.42-3.12l-1.17-0.5
	c-3.39-1.44-5.64-3.26-5.64-7.08c0-3.52,2.69-6.21,6.88-6.21c2.99,0,5.14,1.04,6.68,3.76l-3.66,2.35c-0.81-1.44-1.68-2.01-3.02-2.01
	c-1.38,0-2.25,0.87-2.25,2.01c0,1.41,0.87,1.98,2.89,2.85l1.17,0.5c3.99,1.71,6.24,3.46,6.24,7.38c0,4.23-3.32,6.54-7.79,6.54
	C33.96,46.08,31.14,44,29.76,41.28" />
	</symbol>

	<symbol id="node-icon" viewBox="0 0 50 50">
		<path class="st0" d="M10.73,19.92c0-0.21-0.11-0.4-0.29-0.5l-4.79-2.76c-0.08-0.05-0.17-0.07-0.27-0.08H5.34c-0.09,0-0.18,0.03-0.27,0.08
		l-4.78,2.76C0.11,19.52,0,19.72,0,19.92l0.01,7.42c0,0.1,0.05,0.2,0.14,0.25c0.09,0.05,0.2,0.05,0.29,0l2.84-1.63
		c0.18-0.11,0.29-0.3,0.29-0.5v-3.47c0-0.2,0.11-0.4,0.29-0.5l1.21-0.7c0.09-0.05,0.19-0.08,0.29-0.08s0.2,0.02,0.29,0.08l1.21,0.7
		c0.18,0.1,0.29,0.3,0.29,0.5v3.47c0,0.2,0.11,0.4,0.29,0.5l2.84,1.63c0.09,0.05,0.2,0.05,0.29,0c0.09-0.05,0.14-0.15,0.14-0.25
		C10.71,27.34,10.73,19.92,10.73,19.92z M36.62,11.32l-2.85-1.59c-0.2-0.11-0.43,0.03-0.43,0.25v7.34c0,0.15-0.17,0.25-0.3,0.17
		l-1.2-0.69c-0.18-0.1-0.4-0.1-0.58,0l-4.79,2.77c-0.18,0.1-0.29,0.3-0.29,0.5v5.53c0,0.2,0.11,0.4,0.29,0.5l4.79,2.77
		c0.18,0.1,0.4,0.1,0.58,0l4.79-2.77c0.18-0.1,0.29-0.3,0.29-0.5V11.82C36.91,11.61,36.8,11.41,36.62,11.32z M33.31,21.89v1.9
		c0,0.05-0.02,0.1-0.07,0.12l-1.64,0.95c-0.04,0.02-0.09,0.02-0.14,0l-1.64-0.95c-0.04-0.02-0.07-0.07-0.07-0.12v-1.9
		c0-0.05,0.02-0.1,0.07-0.12l1.64-0.95c0.05-0.02,0.1-0.02,0.15,0l1.64,0.95C33.29,21.79,33.32,21.84,33.31,21.89L33.31,21.89z
		 M49.71,21.84c0.18-0.1,0.29-0.3,0.29-0.5V20c0-0.2-0.11-0.4-0.29-0.5l-4.76-2.77c-0.18-0.1-0.4-0.1-0.58,0l-4.79,2.77
		c-0.18,0.1-0.29,0.3-0.29,0.5v5.53c0,0.21,0.11,0.4,0.29,0.5l4.76,2.71c0.17,0.1,0.39,0.1,0.57,0l2.88-1.6c0.2-0.11,0.2-0.39,0-0.5
		l-4.82-2.77c-0.09-0.05-0.15-0.15-0.15-0.25v-1.73c0-0.1,0.05-0.2,0.15-0.25l1.5-0.87c0.09-0.05,0.2-0.05,0.29,0l1.5,0.87
		c0.09,0.05,0.15,0.15,0.15,0.25v1.36c0,0.22,0.24,0.36,0.44,0.25L49.71,21.84L49.71,21.84z" />
		<path d="M24.71,40.31c-0.16,0-0.33-0.05-0.48-0.12l-1.5-0.89c-0.23-0.12-0.12-0.17-0.04-0.2
		c0.3-0.1,0.36-0.12,0.68-0.31c0.03-0.02,0.08-0.01,0.11,0.01l1.16,0.69c0.04,0.02,0.1,0.02,0.14,0l4.52-2.61
		c0.04-0.02,0.07-0.07,0.07-0.12v-5.21c0-0.05-0.02-0.1-0.07-0.12l-4.52-2.6c-0.04-0.02-0.09-0.02-0.14,0l-4.52,2.6
		c-0.05,0.02-0.07,0.08-0.07,0.12v5.21c0,0.05,0.03,0.09,0.07,0.12l1.23,0.71c0.67,0.34,1.09-0.06,1.09-0.45v-5.15
		c0-0.07,0.05-0.13,0.13-0.13h0.57c0.07,0,0.13,0.05,0.13,0.13v5.15c0,0.9-0.48,1.41-1.34,1.41c-0.26,0-0.47,0-1.04-0.28l-1.19-0.68
		c-0.29-0.17-0.48-0.48-0.48-0.82v-5.21c0-0.34,0.18-0.66,0.48-0.82l4.52-2.61c0.29-0.16,0.66-0.16,0.95,0l4.52,2.61
		c0.29,0.17,0.48,0.48,0.48,0.82v5.21c0,0.34-0.18,0.66-0.48,0.82l-4.52,2.61C25.05,40.27,24.88,40.31,24.71,40.31L24.71,40.31z
		 M28.36,35.17c0-0.98-0.66-1.23-2.05-1.42c-1.41-0.19-1.55-0.28-1.55-0.61c0-0.27,0.12-0.63,1.16-0.63c0.93,0,1.27,0.2,1.41,0.83
		c0.02,0.06,0.06,0.1,0.12,0.1h0.59c0.04,0,0.07-0.02,0.09-0.04c0.02-0.03,0.04-0.06,0.03-0.1c-0.09-1.08-0.8-1.58-2.25-1.58
		c-1.29,0-2.05,0.55-2.05,1.45c0,0.99,0.77,1.26,2,1.38c1.48,0.15,1.59,0.36,1.59,0.65c0,0.51-0.41,0.72-1.36,0.72
		c-1.2,0-1.46-0.3-1.55-0.89c-0.01-0.06-0.06-0.11-0.13-0.11h-0.59c-0.07,0-0.13,0.05-0.13,0.13c0,0.76,0.41,1.66,2.39,1.66
		C27.54,36.72,28.36,36.16,28.36,35.17z M31.75,30.39c-0.46,0-0.87,0.38-0.87,0.87c0,0.48,0.39,0.87,0.87,0.87s0.87-0.39,0.87-0.87
		C32.62,30.77,32.22,30.38,31.75,30.39z M31.74,31.99c-0.4,0-0.73-0.33-0.73-0.73s0.33-0.73,0.73-0.73c0.41,0,0.73,0.32,0.73,0.73
		C32.48,31.66,32.15,31.98,31.74,31.99z M32.08,31.48c-0.02-0.12-0.03-0.21-0.16-0.22c0.07-0.02,0.19-0.06,0.19-0.24
		c0-0.26-0.23-0.26-0.34-0.26h-0.34v0.98h0.19v-0.39h0.17c0.07,0,0.09,0.03,0.1,0.09c0,0.01,0.03,0.26,0.04,0.3h0.2
		C32.1,31.69,32.09,31.56,32.08,31.48z M31.76,31.19h-0.15v-0.27h0.16c0.05,0,0.14,0,0.14,0.13C31.91,31.11,31.88,31.19,31.76,31.19
		z M43.67,22.11c-0.03,0.02-0.05,0.05-0.05,0.09v1.06c0,0.04,0.02,0.08,0.05,0.09l0.92,0.53c0.03,0.02,0.08,0.02,0.11,0l0.92-0.53
		c0.03-0.02,0.05-0.05,0.05-0.09V22.2c0-0.04-0.02-0.08-0.05-0.09l-0.92-0.53c-0.03-0.02-0.08-0.02-0.11,0L43.67,22.11z
		 M23.81,25.51v-5.5c0-0.2-0.13-0.4-0.3-0.5l-4.77-2.75c-0.16-0.09-0.39-0.11-0.58,0l-4.77,2.75c-0.18,0.1-0.3,0.29-0.3,0.5v5.5
		c0,0.22,0.15,0.41,0.31,0.5l4.78,2.75c0.19,0.11,0.41,0.1,0.58,0l4.77-2.75c0.14-0.08,0.24-0.21,0.28-0.37
		C23.8,25.6,23.81,25.55,23.81,25.51z" />
	</symbol>

	<symbol id="python-icon" viewBox="0 0 50 50">
		<path d="M15.73,1.74C18,0.5,20.49,0.29,22.97,0.09c1.86-0.21,3.73,0,5.38,0.21c2.28,0.21,4.76,0.83,6.63,2.28
		c1.24,0.83,2.07,2.28,2.07,3.73V18.1c0,1.66-0.62,3.52-1.86,4.56s-2.9,1.66-4.56,1.66H18.21c-1.66,0-3.31,0.41-4.56,1.66
		c-1.45,1.45-2.07,3.52-2.07,5.59v5.8H7.03c-2.07,0-3.73-1.45-4.76-2.9c-1.66-2.49-2.07-5.38-2.07-8.28c0-0.41-0.21-1.04,0-1.45
		c-0.21-0.41,0-0.83,0-1.04c0-2.9,0.62-5.8,2.28-8.08c1.45-1.66,3.73-2.69,6.01-2.69h16.57v-1.45H13.03V5.47
		C13.03,3.61,14.48,2.36,15.73,1.74 M17.38,4.23c-1.45,0.62-1.86,2.69-0.41,3.73c1.24,1.04,3.31,0,3.31-1.66
		C20.49,4.85,18.83,3.61,17.38,4.23z" />
		<path class="st0" d="M38.72,12.72h3.73c1.86-0.21,3.73,0.62,4.76,2.07c1.86,2.07,2.49,4.97,2.69,7.66v4.97
		c-0.41,2.69-1.04,5.59-2.9,7.66c-1.24,1.24-3.11,2.07-4.97,2.07H25.05v1.66h12.01v5.8c0,1.66-1.04,2.9-2.28,3.52
		c-2.28,1.45-5.18,1.66-7.87,1.86H23.8c-2.69-0.21-5.59-0.62-8.08-2.07c-1.45-0.83-2.69-2.49-2.69-4.14V31.98
		c0-1.66,0.62-3.31,1.86-4.35c1.24-1.24,3.11-1.86,4.97-1.86h12.43c1.66,0,3.52-0.62,4.56-1.86c1.24-1.24,1.86-3.11,2.07-4.97
		C38.72,16.65,38.72,14.79,38.72,12.72 M31.47,41.72c-0.62,0.21-1.04,0.62-1.24,1.04c-0.62,1.04,0,2.69,1.24,2.9
		c1.24,0.62,2.9-0.62,2.69-2.07C34.16,42.54,32.71,41.3,31.47,41.72L31.47,41.72z" />
	</symbol>

	<symbol id="java-icon" viewBox="0 0 50 50">
		<path class="st0" d="M36.46,8.57c-1.45,1.02-2.86,1.89-4.41,3.15c-1.17,0.96-3.29,2.27-3.4,4.03c-0.18,2.68,3.96,5.17,1.76,8.57
	c-0.83,1.3-2.24,1.85-4.03,2.65c-0.21-0.39,0.47-0.72,0.76-1.13c2.75-3.98-2.86-5.3-2.14-10.2C25.7,10.89,31.28,9.24,36.46,8.57
	 M28.28,0c0.88,0.83,1.51,2.38,1.51,4.03c0,4.88-5.16,7.7-7.68,10.96c-0.55,0.73-1.27,1.85-1.26,3.02c0.03,2.66,2.77,5.63,3.78,7.81
	c-1.76-1.16-3.91-2.71-5.42-4.54c-1.51-1.81-3.02-4.76-1.64-7.3c2.08-3.83,8.26-6.11,10.45-10.2C28.56,2.79,28.97,1.26,28.28,0" />
		<path d="M18.95,24.94c-1.3,0.61-3.47,0.72-4.41,2.02c0.96,0.72,2.36,0.69,3.66,0.76c5.32,0.24,11.97-0.21,16.5-1.01
	c0.15,0.33-0.63,0.89-1.13,1.26c-2.86,2.09-11.75,2.68-17.89,2.27c-2.05-0.14-6.75-0.68-6.8-2.52c-0.06-2.23,5.69-2.47,8.06-2.65
	C17.4,25.03,18.27,24.84,18.95,24.94 M16.31,30.61c0.59,0.08-0.42,0.43-0.25,0.88c2.17,2.14,8.91,1.54,12.22,0.88
	c0.69-0.14,1.39-0.55,1.89-0.5c1.26,0.11,2.07,1.58,3.15,1.76c-3.83,1.73-11.23,2.54-16.63,1.51c-1.4-0.26-3.83-1.02-3.91-2.14
	C12.67,31.48,15.19,30.84,16.31,30.61 M17.95,35.78c0.39,0.13-0.14,0.34-0.13,0.5c1.15,1.99,6.82,1.29,9.7,0.63
	c0.58-0.14,1.16-0.54,1.64-0.5c1.46,0.1,2.02,1.62,3.28,1.89c-4.02,2.46-13.75,3.45-17.76,0.38C14.48,36.43,16.28,36.18,17.95,35.78
	 M14.29,39.56c-1.2,0.3-4.3-0.13-4.41,1.51c-0.04,0.63,1.06,1.37,1.76,1.64c4.11,1.55,12.36,1.79,19.15,1.01
	c3.15-0.37,9.07-1.42,8.31-4.66c0.95,0.11,1.79,0.72,1.89,1.64c0.38,3.47-7.61,4.94-10.83,5.29C23.15,46.75,14.38,46.6,9,44.72
	c-1.75-0.61-3.87-1.73-3.78-3.4C5.38,38.5,12.18,37.72,14.29,39.56 M25,50c-4.73-0.52-9.27-1.21-13.1-2.9
	c10.02,2.41,24.62,2.23,31.62-2.9c0.38-0.28,0.73-0.82,1.26-0.75c-1.76,5.29-8.54,5.66-14.36,6.55H25 M35.71,26.2
	c2.6-2.22,6.99-1.35,7.18,2.39c0.21,4.39-4.58,6.84-8.06,7.05c1.61-1.53,5.87-4,5.04-7.55C39.52,26.66,37.74,25.79,35.71,26.2" />
	</symbol>

	<symbol id="utilities-icon" viewBox="0 0 50 50">
		<path d="M47.42,39.09l-9.94-9.94l-0.42,0.42c-0.69,0.69-1.81,0.69-2.5,0c-0.69-0.69-0.69-1.81,0-2.5l0,0l0.42-0.42
		l-2.5-2.5l-8.33,8.33l2.5,2.5l0.42-0.42c0.69-0.69,1.81-0.69,2.5,0s0.69,1.81,0,2.5l-0.42,0.42l9.94,9.94
		c0.3,0.3,0.63,0.56,0.99,0.79l8.13-8.13C47.98,39.72,47.72,39.39,47.42,39.09z" />
		<path class="st0" d="M0.11,4.58l3.33,5.83c0.11,0.2,0.3,0.34,0.52,0.39l3.11,0.78l10.66,10.66l1.18-1.18L8.08,10.24
		c-0.11-0.11-0.24-0.18-0.39-0.22L4.71,9.27L1.87,4.31L4.3,1.87l4.97,2.84l0.75,2.99c0.04,0.15,0.11,0.28,0.22,0.39l10.83,10.83
		l1.18-1.18L11.59,7.08l-0.78-3.11c-0.05-0.22-0.2-0.41-0.39-0.52L4.58,0.12c-0.33-0.18-0.73-0.13-1,0.13L0.25,3.58
		C-0.02,3.84-0.07,4.26,0.11,4.58z M15.24,33.56l18.32-18.32l1.18,1.18L16.42,34.74L15.24,33.56z M13.21,35.39
		c-0.15-0.25-0.42-0.4-0.71-0.4h-5c-0.29,0-0.56,0.15-0.71,0.4l-2.5,4.16c-0.16,0.26-0.16,0.59,0,0.86l2.5,4.16
		c0.15,0.25,0.42,0.4,0.71,0.4h5c0.29,0,0.56-0.15,0.71-0.4l2.5-4.16c0.16-0.26,0.16-0.59,0-0.86L13.21,35.39z M12.02,43.31H7.97
		l-2-3.33l2-3.33h4.05l2,3.33L12.02,43.31z M39.98,19.99c5.5,0.02,9.98-4.43,9.99-9.93c0-0.84-0.1-1.67-0.31-2.48
		c-0.11-0.45-0.56-0.72-1.01-0.61c-0.15,0.04-0.28,0.11-0.39,0.22l-5.19,5.18L38.98,11L37.6,6.89l5.19-5.19
		c0.32-0.33,0.32-0.85,0-1.18c-0.11-0.11-0.24-0.18-0.39-0.22c-5.34-1.35-10.76,1.88-12.11,7.21c-0.2,0.81-0.31,1.64-0.3,2.48
		c0,0.66,0.07,1.31,0.2,1.95L11.95,30.19c-0.64-0.13-1.3-0.2-1.95-0.2c-5.52,0-10,4.48-10,10s4.48,10,10,10s10-4.48,10-10
		c0-0.66-0.07-1.31-0.2-1.95l4.37-4.37l1.91,1.91c0.32,0.32,0.85,0.32,1.18,0l0.42-0.42c0.37-0.36,0.96-0.36,1.32,0
		c0.36,0.36,0.37,0.95,0,1.32c0,0,0,0,0,0l-0.42,0.42c-0.32,0.32-0.32,0.85,0,1.18l9.94,9.94c2.61,2.64,6.87,2.66,9.51,0.04
		c2.64-2.61,2.66-6.87,0.04-9.51c-0.01-0.01-0.03-0.03-0.04-0.04l-9.94-9.94c-0.32-0.32-0.85-0.32-1.18,0l-0.42,0.42
		c-0.37,0.36-0.96,0.36-1.32,0c-0.36-0.36-0.37-0.95,0-1.32c0,0,0,0,0,0l0.42-0.42c0.32-0.32,0.32-0.85,0-1.18l-1.91-1.91l4.37-4.37
		C38.67,19.92,39.33,19.99,39.98,19.99z M43.25,48.31c-0.61,0-1.21-0.11-1.77-0.32l6.51-6.51c0.98,2.61-0.34,5.52-2.95,6.51
		C44.47,48.2,43.86,48.31,43.25,48.31z M33.82,26.66c-0.92,1.1-0.78,2.74,0.32,3.66c0.97,0.81,2.38,0.81,3.34,0l9.35,9.36
		c0.1,0.1,0.2,0.21,0.29,0.32L40,47.12c-0.11-0.09-0.22-0.19-0.32-0.29l-9.35-9.36c0.92-1.1,0.78-2.74-0.32-3.66
		c-0.97-0.81-2.38-0.81-3.34,0l-1.33-1.33l7.16-7.15L33.82,26.66z M37.18,18.29l-18.9,18.89c-0.21,0.21-0.29,0.51-0.22,0.79
		c1.14,4.49-1.57,9.05-6.06,10.2c-4.49,1.14-9.05-1.57-10.2-6.06s1.57-9.05,6.06-10.2c1.36-0.35,2.78-0.35,4.14,0
		c0.28,0.07,0.58-0.01,0.79-0.22L31.69,12.8c0.21-0.21,0.29-0.51,0.22-0.79c-1.14-4.44,1.54-8.95,5.98-10.09
		c0.84-0.21,1.71-0.3,2.57-0.24l-4.39,4.4c-0.22,0.22-0.3,0.55-0.2,0.85l1.67,5c0.08,0.25,0.28,0.44,0.53,0.53l5,1.67
		c0.3,0.1,0.63,0.02,0.85-0.2l4.39-4.39c0.01,0.16,0.02,0.32,0.02,0.47c0.02,4.58-3.67,8.31-8.24,8.33c-0.71,0-1.41-0.08-2.1-0.26
		C37.68,18,37.38,18.08,37.18,18.29C37.18,18.29,37.18,18.29,37.18,18.29z M33.56,34.74l1.18-1.18l8.33,8.33l-1.18,1.18L33.56,34.74
		z" />
	</symbol>

	<symbol id="err-icon" viewBox="0 0 50 50">
		<path class="st0" d="M12.7,0.98h36.33v7.81H16.6L12.7,0.98z" />
		<path d="M40.72,3.91c0.54,0,0.98,0.44,0.98,0.98s-0.44,0.98-0.98,0.98s-0.98-0.44-0.98-0.98S40.18,3.91,40.72,3.91z M36.33,3.91
		c0.54,0,0.98,0.44,0.98,0.98s-0.44,0.98-0.98,0.98s-0.98-0.44-0.98-0.98S35.79,3.91,36.33,3.91z M45.12,3.91
		c0.54,0,0.98,0.44,0.98,0.98s-0.44,0.98-0.98,0.98s-0.98-0.44-0.98-0.98S44.58,3.91,45.12,3.91z M24.76,48.05
		c0.54,0,0.98,0.44,0.98,0.98S25.3,50,24.76,50s-0.98-0.44-0.98-0.98S24.22,48.05,24.76,48.05z M49.02,0H0.98
		C0.72,0,0.47,0.1,0.29,0.29S0,0.72,0,0.98v48.05c0,0.26,0.1,0.51,0.29,0.69C0.47,49.9,0.72,50,0.98,50h19.39
		c0.54,0,0.98-0.44,0.98-0.98s-0.44-0.98-0.98-0.98H1.95V9.77h46.09v38.28H29.16c-0.54,0-0.98,0.44-0.98,0.98S28.62,50,29.16,50
		h19.87c0.26,0,0.51-0.1,0.69-0.29C49.9,49.53,50,49.28,50,49.02V0.98C50,0.44,49.56,0,49.02,0z M1.95,7.81V1.95h10.14l0.98,1.95
		H9.28c-0.54,0-0.98,0.44-0.98,0.98s0.44,0.98,0.98,0.98h4.77l0.98,1.95H1.95z M48.05,7.81H17.21l-2.93-5.86h33.77V7.81z M4.88,3.91
		c0.54,0,0.98,0.44,0.98,0.98S5.42,5.86,4.88,5.86S3.91,5.42,3.91,4.88S4.34,3.91,4.88,3.91z M13.68,17.02
		c0-0.24-0.13-0.44-0.38-0.61c-0.25-0.17-0.5-0.25-0.74-0.25c-0.44,0-0.76,0.2-0.97,0.61l-5.1,10.05c-0.08,0.15-0.13,0.31-0.13,0.46
		c0,0.25,0.07,0.45,0.22,0.6c0.15,0.15,0.33,0.22,0.56,0.22h5.19v2.74c0,0.23,0.11,0.41,0.33,0.54c0.22,0.13,0.48,0.2,0.79,0.2
		c0.3,0,0.56-0.07,0.78-0.2c0.22-0.13,0.34-0.31,0.34-0.54V28.1h1.03c0.2,0,0.37-0.11,0.53-0.32c0.15-0.22,0.23-0.45,0.23-0.7
		c0-0.28-0.07-0.52-0.2-0.73c-0.13-0.21-0.32-0.31-0.56-0.31h-1.03V23.1c0-0.24-0.11-0.42-0.33-0.55c-0.22-0.13-0.48-0.19-0.79-0.19
		c-0.75,0-1.12,0.25-1.12,0.74v2.93h-3.1l4.35-8.67C13.64,17.22,13.68,17.11,13.68,17.02L13.68,17.02z M27.99,17.3
		c-0.86-0.76-2.01-1.14-3.45-1.14s-2.58,0.38-3.44,1.14c-0.86,0.76-1.29,1.95-1.29,3.56V27c0,1.62,0.43,2.81,1.29,3.56
		c0.86,0.76,2,1.14,3.44,1.14c1.43,0,2.58-0.38,3.45-1.14c0.86-0.76,1.3-1.95,1.3-3.56v-6.14C29.29,19.24,28.85,18.06,27.99,17.3
		L27.99,17.3z M27.05,27c0,0.91-0.22,1.6-0.65,2.05c-0.44,0.45-1.05,0.67-1.86,0.67c-1.66,0-2.49-0.91-2.49-2.72v-6.14
		c0-1.81,0.83-2.72,2.49-2.72c0.8,0,1.42,0.23,1.86,0.68c0.44,0.45,0.65,1.13,0.65,2.05V27z M40,17.02c0-0.24-0.13-0.44-0.38-0.61
		c-0.25-0.17-0.5-0.25-0.74-0.25c-0.44,0-0.76,0.2-0.97,0.61l-5.1,10.05c-0.08,0.15-0.13,0.31-0.13,0.46c0,0.25,0.07,0.45,0.22,0.6
		s0.33,0.22,0.56,0.22h5.19v2.74c0,0.23,0.11,0.41,0.33,0.54c0.22,0.13,0.48,0.2,0.79,0.2c0.3,0,0.56-0.07,0.78-0.2
		c0.22-0.13,0.34-0.31,0.34-0.54V28.1h1.03c0.2,0,0.37-0.11,0.53-0.32c0.15-0.22,0.23-0.45,0.23-0.7c0-0.28-0.07-0.52-0.2-0.73
		c-0.13-0.21-0.32-0.31-0.56-0.31h-1.03V23.1c0-0.24-0.11-0.42-0.33-0.55c-0.22-0.13-0.48-0.19-0.79-0.19
		c-0.75,0-1.12,0.25-1.12,0.74v2.93h-3.1l4.35-8.67C39.97,17.22,40,17.11,40,17.02L40,17.02z M25,37.3c0.54,0,0.98,0.44,0.98,0.98
		s-0.44,0.98-0.98,0.98s-0.98-0.44-0.98-0.98S24.46,37.3,25,37.3z M8.89,39.26h11.72c0.54,0,0.98-0.44,0.98-0.98
		s-0.44-0.98-0.98-0.98H8.89c-0.54,0-0.98,0.44-0.98,0.98S8.35,39.26,8.89,39.26z M28.42,38.28c0,0.54,0.44,0.98,0.98,0.98h11.72
		c0.54,0,0.98-0.44,0.98-0.98s-0.44-0.98-0.98-0.98H29.39C28.86,37.3,28.42,37.74,28.42,38.28z M17.19,43.16h15.62
		c0.54,0,0.98-0.44,0.98-0.98s-0.44-0.98-0.98-0.98H17.19c-0.54,0-0.98,0.44-0.98,0.98S16.65,43.16,17.19,43.16z" />
	</symbol>

	<symbol id="info-icon" viewBox="0 0 50 50">
		<path d="M25.45,18.14c0.14-0.02,0.27-0.07,0.41-0.14c0.14-0.05,0.27-0.11,0.41-0.2l0.34-0.27
		c0.41-0.43,0.66-1.02,0.66-1.61c0-0.14-0.02-0.3-0.05-0.43c-0.02-0.15-0.07-0.3-0.14-0.43c-0.05-0.14-0.12-0.28-0.2-0.41
		c-0.07-0.11-0.18-0.23-0.27-0.34c-0.64-0.61-1.64-0.84-2.48-0.48c-0.3,0.11-0.52,0.27-0.75,0.48c-0.09,0.11-0.2,0.23-0.27,0.34
		c-0.09,0.14-0.16,0.27-0.2,0.41c-0.07,0.14-0.11,0.27-0.14,0.43c-0.02,0.14-0.05,0.3-0.05,0.43c0,0.59,0.25,1.18,0.66,1.61
		c0.23,0.2,0.45,0.36,0.75,0.48c0.27,0.11,0.57,0.18,0.86,0.18C25.14,18.18,25.3,18.16,25.45,18.14 M27.27,34.09V25
		c0-1.26-1.02-2.27-2.27-2.27s-2.27,1.02-2.27,2.27v9.09c0,1.26,1.02,2.27,2.27,2.27S27.27,35.35,27.27,34.09 M25,4.55
		C13.72,4.55,4.55,13.72,4.55,25c0,11.28,9.18,20.45,20.45,20.45c11.28,0,20.45-9.17,20.45-20.45C45.45,13.72,36.28,4.55,25,4.55
		 M25,50C11.22,50,0,38.78,0,25S11.22,0,25,0c13.79,0,25,11.22,25,25S38.79,50,25,50" />
	</symbol>

	<symbol id="warn-icon" viewBox="0 0 50 50">
		<path d="M25.45,18.14c0.14-0.02,0.27-0.07,0.41-0.14c0.14-0.05,0.27-0.11,0.41-0.2l0.34-0.27
		c0.41-0.43,0.66-1.02,0.66-1.61c0-0.14-0.02-0.3-0.05-0.43c-0.02-0.15-0.07-0.3-0.14-0.43c-0.05-0.14-0.12-0.28-0.2-0.41
		c-0.07-0.11-0.18-0.23-0.27-0.34c-0.64-0.61-1.64-0.84-2.48-0.48c-0.3,0.11-0.52,0.27-0.75,0.48c-0.09,0.11-0.2,0.23-0.27,0.34
		c-0.09,0.14-0.16,0.27-0.2,0.41c-0.07,0.14-0.11,0.27-0.14,0.43c-0.02,0.14-0.05,0.3-0.05,0.43c0,0.59,0.25,1.18,0.66,1.61
		c0.23,0.2,0.45,0.36,0.75,0.48c0.27,0.11,0.57,0.18,0.86,0.18C25.14,18.18,25.3,18.16,25.45,18.14 M27.27,34.09V25
		c0-1.26-1.02-2.27-2.27-2.27s-2.27,1.02-2.27,2.27v9.09c0,1.26,1.02,2.27,2.27,2.27S27.27,35.35,27.27,34.09 M25,4.55
		C13.72,4.55,4.55,13.72,4.55,25c0,11.28,9.18,20.45,20.45,20.45c11.28,0,20.45-9.17,20.45-20.45C45.45,13.72,36.28,4.55,25,4.55
		 M25,50C11.22,50,0,38.78,0,25S11.22,0,25,0c13.79,0,25,11.22,25,25S38.79,50,25,50" />
	</symbol>

	<symbol id="danger-icon" viewBox="0 0 50 50">
		<path d="M6.5,46.95c-1.15-0.01-2.26-0.32-3.23-0.88c-3.13-1.81-4.2-5.82-2.4-8.95L19.39,6.22c0,0,0-0.01,0-0.01
	C19.94,5.31,20.7,4.55,21.6,4c1.49-0.91,3.25-1.18,4.96-0.76c1.7,0.42,3.13,1.47,4.04,2.97L49.1,37.1c0.58,1,0.88,2.11,0.9,3.23
	c0.02,1.75-0.64,3.4-1.86,4.65c-1.22,1.25-2.86,1.95-4.62,1.97H6.5z M23.14,8.47L4.64,39.34c-0.58,1.02-0.22,2.35,0.82,2.96
	c0.32,0.18,0.69,0.29,1.07,0.29H43.5c0.56,0,1.1-0.24,1.51-0.66c0.41-0.42,0.63-0.96,0.62-1.55c0-0.38-0.11-0.75-0.29-1.07
	L26.86,8.46c-0.62-1.02-1.96-1.35-2.99-0.73C23.57,7.92,23.32,8.17,23.14,8.47z M27.18,27.3v-8.74c0-1.21-0.98-2.18-2.18-2.18
	c-1.21,0-2.18,0.98-2.18,2.18v8.74c0,1.21,0.98,2.18,2.18,2.18C26.21,29.48,27.18,28.5,27.18,27.3z M26.53,37.56
	c0.44-0.39,0.66-0.92,0.66-1.53c0-0.26-0.04-0.57-0.17-0.83c-0.09-0.26-0.26-0.52-0.48-0.7c-0.78-0.83-2.27-0.83-3.06,0
	c-0.22,0.17-0.39,0.44-0.48,0.7c-0.13,0.26-0.17,0.57-0.17,0.83c0,0.61,0.22,1.13,0.65,1.53c0.39,0.44,0.96,0.66,1.53,0.66
	C25.57,38.22,26.13,38,26.53,37.56z" />
	</symbol>

	<symbol id="tip-icon" viewBox="0 0 50 50">
		<path d="M23.92,48.91c0,0-0.01,0-0.02,0C10.71,48.9-0.01,38.17,0,24.99c0.01-13.18,10.73-23.9,23.91-23.9
	c0.01,0,0.01,0,0.01,0c3.37,0,6.64,0.7,9.72,2.07c1.1,0.49,1.59,1.77,1.1,2.87s-1.79,1.59-2.87,1.1c-2.52-1.12-5.19-1.69-7.95-1.69
	c0,0-0.01,0-0.01,0c-10.78,0-19.56,8.77-19.57,19.55C4.34,35.78,13.11,44.56,23.9,44.57c0,0,0.01,0,0.01,0
	c5.22,0,10.13-2.03,13.82-5.72c3.7-3.69,5.74-8.61,5.74-13.84v-2.02c0-1.2,0.97-2.17,2.17-2.17c1.2,0,2.17,0.97,2.17,2.17v2.02
	c0,6.39-2.5,12.39-7.01,16.91C36.3,46.43,30.3,48.91,23.92,48.91z M25.45,30.9L49.36,6.98c0.85-0.85,0.85-2.22,0-3.07
	c-0.85-0.85-2.22-0.85-3.07,0L23.91,26.29l-4.98-4.98c-0.85-0.85-2.22-0.85-3.07,0c-0.85,0.85-0.85,2.22,0,3.07l6.52,6.52
	c0.42,0.42,0.98,0.64,1.54,0.64C24.47,31.53,25.03,31.32,25.45,30.9z" />
	</symbol>

	<symbol id="git-icon" viewBox="0 0 50 50">
		<path d="M49.05,22.77L27.22,0.94c-1.26-1.26-3.3-1.26-4.56,0l-4.52,4.53l5.75,5.75c2-0.68,4.18,0.4,4.86,2.4
		c0.27,0.8,0.27,1.67-0.01,2.47l5.54,5.54c2-0.69,4.18,0.37,4.87,2.36c0.48,1.39,0.13,2.93-0.92,3.97c-1.49,1.5-3.92,1.5-5.41,0.01
		c0,0,0,0-0.01-0.01c-1.09-1.09-1.42-2.73-0.84-4.16l-5.19-5.16v13.59c0.37,0.18,0.71,0.42,1.02,0.72c1.49,1.5,1.49,3.92,0,5.42
		c-1.5,1.5-3.93,1.5-5.44,0c0,0,0,0,0,0c-1.49-1.49-1.5-3.91-0.01-5.4c0,0,0.01-0.01,0.01-0.01c0.38-0.37,0.81-0.66,1.26-0.85V18.41
		c-0.47-0.19-0.89-0.48-1.25-0.84c-1.1-1.1-1.43-2.75-0.82-4.19l-5.65-5.68L0.94,22.67c-1.25,1.26-1.25,3.3,0,4.56l21.83,21.83
		c1.26,1.26,3.3,1.26,4.55,0c0,0,0,0,0,0l21.73-21.73C50.31,26.07,50.31,24.04,49.05,22.77C49.06,22.78,49.06,22.77,49.05,22.77
		L49.05,22.77z" />
	</symbol>

	<symbol id="menu-icon" viewBox="0 0 50 50">
		<path d="M47.5,22.5h-35c-1.38,0-2.5-1.12-2.5-2.5s1.12-2.5,2.5-2.5h35c1.38,0,2.5,1.12,2.5,2.5S48.88,22.5,47.5,22.5z M50,10
		c0-1.38-1.12-2.5-2.5-2.5h-45C1.12,7.5,0,8.62,0,10s1.12,2.5,2.5,2.5h45C48.88,12.5,50,11.38,50,10z M50,30c0-1.38-1.12-2.5-2.5-2.5
		h-45C1.12,27.5,0,28.62,0,30s1.12,2.5,2.5,2.5h45C48.88,32.5,50,31.38,50,30z M50,40c0-1.38-1.12-2.5-2.5-2.5h-35
		c-1.38,0-2.5,1.12-2.5,2.5s1.12,2.5,2.5,2.5h35C48.88,42.5,50,41.38,50,40z" />
	</symbol>

	<symbol id="rs-icon" viewBox="0 0 50 50">
		<path d="" />
	</symbol>
</svg>