<?xml version="1.0" encoding="utf-8"?>
<!-- Generator: Adobe Illustrator 23.0.3, SVG Export Plug-In . SVG Version: 6.00 Build 0)  -->
<svg version="1.1" id="图层_1" xmlns="http://www.w3.org/2000/svg" xmlns:xlink="http://www.w3.org/1999/xlink" x="0px" y="0px"
	 viewBox="0 0 200 200" style="enable-background:new 0 0 200 200;" xml:space="preserve">
<style type="text/css">
	.st0{fill:#E6E6E6;}
	.st1{fill:#EA8642;}
	.st2{fill:#38332D;}
	.st3{fill:#54BBD3;}
</style>
<rect class="st0" width="200" height="200"/>
<g>
	<path class="st1" d="M26.09,199.99c0,0,7.3-15.76,21.02-21.01l11.69-4.59c0,0,16.12-6.2,19.14-9.37c0,0,29.96,4.32,43.61-2.02
		c0,0,12.31,8.41,16.23,9.75c0,0,18.95,5.16,25.21,12.13c0,0,10.65,8,10.24,15.12H26.09V199.99z"/>
	<path class="st2" d="M70.13,95.46c2.03-6.9,1.92-24.7,10.92-26.96c3.75-0.95,16.56,9.45,34.25,0c7.05-3.76,14.19,20.62,15.51,24.07
		l0.57-3.15l3.3-2.47c0,0,13.71-49.66-35.58-48.72c-49.29,0.95-35.17,49.11-35.17,49.11S69.4,86.53,70.13,95.46z"/>
	<path class="st2" d="M30.31,193.5c4.01-7.19,11.62-12.63,19.21-15.96c3.13,7.16,3.46,14.81,2.81,22.44h1.99
		c0.65-7.91,0.25-15.75-2.96-23.22c7.39-2.92,15.33-4.42,22.03-8.88c0.13-0.08,0.25-0.18,0.39-0.26c1.35-0.84,2.53-1.72,3.57-2.62
		c0.12,0.17,0.28,0.3,0.56,0.34c14.83,2.62,29.91,3.62,44.55-0.68c0.01,0,0.02-0.01,0.05-0.02c0.57,0.56,1.17,1.1,1.8,1.6
		c7.08,5.54,16.9,7.43,25.08,10.8c0.33,0.14,0.68,0.28,1.01,0.44c-5.17,5.71-6.39,14.39-6.28,22.5h1.99
		c-0.13-7.88,1.02-16.33,6.21-21.63c6.96,3.37,13.69,8.54,17.37,15.13c1.15,2.06,2.15,4.47,2.96,6.49h1.85
		c-1.83-5.04-4.6-10.27-8.28-14.43c-5.45-6.19-14.22-9.66-21.96-12.18c-12.88-4.17-26.11-9.12-27.47-24.67
		c-0.33-3.83-0.17-7.68-0.19-11.52c6.15-4.28,9.83-11.88,11.84-19.41c2.51-9.37,3.21-19.52,2.49-29.3c-0.6,0.26-1.22,0.49-1.85,0.69
		c0.6,9-0.09,18.24-2.18,26.9c-2.51,10.46-8.38,21.97-20.46,22.67c-0.23,0.01-0.24,1.92,0,1.91c3.18-0.18,5.96-1.03,8.41-2.38
		c-0.01,2.94-0.11,5.87,0.07,8.81c0.36,5.71,2.38,11.5,6.06,15.92c-13.82,3.83-28.01,2.94-42.02,0.5c4.47-4.7,5.75-10.23,6.13-16.43
		c0.2-3.38,0.06-6.77,0.07-10.15c2.15,1.35,4.54,2.34,7.22,2.85c1.22,0.24,1.49-1.66,0.28-1.89c-9.73-1.86-15.18-10.54-18.19-19.29
		c-3.07-8.92-4.08-18.61-4.05-28.01c0-1.23-1.9-1-1.9,0.23c-0.01,9.89,1.17,19.99,4.48,29.35c2.12,6,5.5,11.76,10.42,15.54
		c-0.08,4.33,0.18,8.66-0.2,12.97c-0.45,5.06-2.36,9.72-5.66,13.6c-5.5,6.46-14.07,8.57-21.82,11.09c-7.74,2.5-16.5,6.01-21.96,12.2
		c-3.66,4.16-6.45,9.39-8.28,14.43h1.85C28.17,197.97,29.15,195.57,30.31,193.5z"/>
	<path class="st2" d="M123.91,91.73c-5.36-3.53-12.78-3.19-18.21,0c-1.39,0.81-0.13,2.95,1.26,2.15c4.71-2.76,11.07-3.06,15.71,0
		C124,94.76,125.25,92.6,123.91,91.73z"/>
	<path class="st2" d="M121.86,97.93c-5.82-3.95-11.45-2.43-17.12,1.01c-0.9,0.55-0.24,2.06,0.68,1.51c1.46-0.89,2.93-1.66,4.41-2.23
		c0.04,0.68,0.17,1.34,0.49,1.96c0.41,0.82,1.11,1.2,1.92,1.57c1.09,0.5,2.25,0.28,3.05-0.6c0.81-0.89,1.01-2.6,0.5-3.84
		c1.68,0.18,3.39,0.78,5.11,1.96C121.76,99.86,122.75,98.53,121.86,97.93z"/>
	<path class="st2" d="M76.58,98.83c1.79-1.07,3.52-1.58,5.22-1.66c-0.58,1.21-0.47,2.93,0.27,3.87c0.75,0.92,1.9,1.21,3.01,0.77
		c0.82-0.32,1.53-0.66,2-1.45c0.36-0.6,0.52-1.26,0.59-1.93c1.43,0.65,2.86,1.51,4.27,2.48c0.88,0.6,1.62-0.88,0.76-1.47
		c-5.47-3.76-11-5.6-17.04-1.99C74.76,97.99,75.66,99.37,76.58,98.83z"/>
	<path class="st2" d="M111.41,122.14c-7.07,2.61-13.87,2.3-20.62-1.11c-1.03-0.52-1.97,1.02-0.94,1.54
		c7.16,3.63,14.47,4.1,22.01,1.32C112.94,123.49,112.5,121.73,111.41,122.14z"/>
	<path class="st2" d="M131,88.74c-0.91,0.7-0.01,2.26,0.91,1.55c5.54-4.26,6.68,1.85,6.57,6.38c-0.12,5.37-2.51,11.74-8.52,12.37
		c-1.14,0.12-1.16,1.92,0,1.8c7.87-0.82,10.42-8.85,10.34-15.83C140.2,88.84,136.81,84.28,131,88.74z"/>
	<path class="st2" d="M69.9,88.74c0.91,0.7,0.01,2.26-0.91,1.55c-5.54-4.26-6.66,1.85-6.57,6.38c0.12,5.37,2.51,11.74,8.52,12.37
		c1.15,0.12,1.15,1.92,0,1.8c-7.87-0.82-10.42-8.85-10.34-15.83C60.69,88.84,64.08,84.28,69.9,88.74z"/>
	<path class="st2" d="M131.85,87.53l-4.9-6.7c0.6,9.53,0.69,19.94-1.74,29.21c-0.75,2.76-2.53,7.87-5.41,7.66
		c-3.07-0.24-11.73-4.2-18.85-4.36c-6.89-0.15-13.29,2.86-20.05,3.62c-4.73,0.53-5.43-1.97-6.08-6.14
		c-1.32-8.31-2.02-15.92-2.05-24.34c0-1.21-0.72-4.55,0.08-5.66l-4.9,6.7c0.68,22.84,6.06,36.38,6.06,36.38
		c0.64,2.7,1.99,6.3,2.24,6.92c2.42,5.95,7.22,12.19,13.18,14.84c14.35,6.4,28.05,4.05,36.38-14.96
		C131.79,117.02,131.43,101.91,131.85,87.53z M112.69,126.49c-2.82,3.3-7.2,4.6-11.41,4.36c-1.1-0.06-2.21-0.23-3.26-0.49
		c-2.32-0.58-4.65-1.4-6.62-2.79c-0.94-0.66-5.36-4.75-4.32-6.22c0,0,1.78-2.53,13.94-2.28c12.08,0.25,13.94,2.88,13.97,2.92
		C115.53,122.77,113.12,125.99,112.69,126.49z"/>
	<path class="st2" d="M104.67,112.81c-2.51,0.15-5.99,0.39-6.96-2.53c-0.57-1.71-0.19-5.49-0.07-7.24
		c0.32-4.88-0.66-12.18-6.25-13.46c-4.36-1-11.63,0.04-15.47,2.29c-1.38,0.81-0.13,2.95,1.26,2.15c3.52-2.06,9.41-2.67,13.39-1.74
		c5.48,1.28,5.5,6.94,5.32,11.48c-0.05,1.35-0.12,4.4,0.01,5.74c0.43,4.66,4.93,5.21,8.79,4.97
		C105.73,114.4,105.73,112.75,104.67,112.81z"/>
	<path class="st3" d="M118.74,90.84c-5.77-1.93-11.66,0.74-13.62,6.51c-0.21,0.62-0.34,1.21-0.44,1.79
		c-1.36-0.59-2.82-0.76-4.39-0.65c-1.43,0.09-2.95,0.74-4.4,0.76c-0.4-3.84-3.22-7.09-7.14-8.39c-5.77-1.93-11.66,0.74-13.62,6.51
		c-4.19,12.3,15.72,18.29,20.2,6.18c0.28-0.77,0.46-1.54,0.55-2.3c1.04-0.02,2.12-0.36,3.12-0.55c1.99-0.39,3.87-0.32,5.58,0.68
		c0.77,9.44,16.78,12.88,20.74,2.18C127.38,97.99,124.06,92.61,118.74,90.84z M93.63,102.47c-0.59,2.42-2.24,4.26-4.49,5.24
		c-6.32,2.74-13.77-2.32-12.27-9.27c1.08-5.02,6.01-6.91,10.62-5.9C92.26,93.56,94.77,97.78,93.63,102.47z M123.61,102.47
		c-0.59,2.42-2.24,4.26-4.51,5.24c-6.32,2.74-13.77-2.32-12.27-9.27c1.08-5.02,6.01-6.91,10.62-5.9
		C122.25,93.56,124.75,97.78,123.61,102.47z"/>
</g>
</svg>
