<?xml version="1.0" encoding="utf-8"?>
<!-- Generator: Adobe Illustrator 23.0.3, SVG Export Plug-In . SVG Version: 6.00 Build 0)  -->
<svg version="1.1" id="图层_1" xmlns="http://www.w3.org/2000/svg" xmlns:xlink="http://www.w3.org/1999/xlink" x="0px" y="0px"
	 viewBox="0 0 50 50" style="enable-background:new 0 0 50 50;" xml:space="preserve">
<path d="M0,0v50h50V0H0z M20.28,24.71l-8.67,8.67c-0.12,0.13-0.26,0.19-0.42,0.19c-0.17,0-0.31-0.06-0.43-0.19l-0.93-0.93
	c-0.13-0.12-0.19-0.27-0.19-0.43c0-0.16,0.06-0.3,0.19-0.42l7.31-7.32l-7.31-7.31c-0.13-0.12-0.19-0.26-0.19-0.43
	c0-0.16,0.06-0.3,0.19-0.42l0.93-0.93c0.12-0.13,0.26-0.19,0.43-0.19c0.16,0,0.3,0.06,0.42,0.19l8.67,8.67
	c0.13,0.12,0.19,0.26,0.19,0.42C20.47,24.44,20.41,24.59,20.28,24.71z M40.36,34.4c0,0.18-0.06,0.32-0.17,0.43
	C40.08,34.94,39.94,35,39.76,35H21.9c-0.17,0-0.31-0.06-0.43-0.17c-0.11-0.11-0.16-0.25-0.16-0.43v-1.19c0-0.17,0.05-0.31,0.16-0.42
	c0.12-0.12,0.26-0.17,0.43-0.17h17.86c0.18,0,0.32,0.05,0.43,0.17c0.11,0.11,0.17,0.25,0.17,0.42V34.4z"/>
</svg>
